<?xml version="1.0" encoding="UTF-8"?>
<svg xmlns="http://www.w3.org/2000/svg" viewBox="0 0 10.2447 11.4213" width="1000" height="1115">
  <rect x="0" y="0" width="10.2447" height="11.4213" fill="#fafafa"/>
  <polygon points="4.5988,6.7329 4.9562,6.7329 5.0988,6.6255 5.0988,6.7329 5.0988,6.8403 5.2414,6.7329 5.5988,6.7329 5.8143,6.4478 5.8146,6.2693 5.9003,6.3340 5.9859,6.3988 5.9862,6.2202 6.2017,5.9351 6.1042,5.5913 5.9619,5.4834 6.0652,5.4541 6.1686,5.4248 6.0263,5.3169 5.9288,4.9731 5.5957,4.8436 5.4238,4.8921 5.4627,4.7920 5.5016,4.6919 5.3298,4.7403 4.9967,4.6108 4.7324,4.8513 4.6992,5.0268 4.6269,4.9473 4.5546,4.8679 4.5214,5.0433 4.2571,5.2838 3.8687,5.4160 3.9084,5.5327 3.7534,5.5854 3.7137,5.4687 3.6740,5.3520 3.5190,5.4047 3.5587,5.5214 3.1703,5.6536 3.5216,5.7194 3.6816,5.6402 3.6618,5.7457 3.6420,5.8513 3.8019,5.7720 4.1532,5.8379 4.3125,6.1577 4.4721,6.2375 4.3760,6.2854 4.2799,6.3332 4.4395,6.4130 4.5988,6.7329" fill="#bcd9ff" stroke="#333" stroke-width="0.0190" stroke-linejoin="round"/>
  <polygon points="5.5988,6.7329 5.2414,6.7329 5.0988,6.8403 5.0988,6.7329 5.0988,6.6255 4.9562,6.7329 4.5988,6.7329 4.3833,7.0180 4.3830,7.1966 4.2973,7.1318 4.2116,7.0671 4.2113,7.2456 3.9959,7.5307 4.0934,7.8745 4.2357,7.9824 4.1323,8.0117 4.0290,8.0410 4.1713,8.1489 4.2688,8.4927 4.6019,8.6222 4.7738,8.5738 4.7349,8.6739 4.6959,8.7740 4.8678,8.7255 5.2009,8.8550 5.4652,8.6145 5.4984,8.4391 5.5707,8.5185 5.6430,8.5979 5.6762,8.4225 5.9405,8.1820 6.3289,8.0499 6.2892,7.9331 6.4442,7.8804 6.4839,7.9971 6.5236,8.1138 6.6786,8.0611 6.6389,7.9444 7.0272,7.8123 6.6760,7.7464 6.5160,7.8257 6.5358,7.7201 6.5556,7.6146 6.3956,7.6938 6.0444,7.6280 5.8851,7.3081 5.7255,7.2283 5.8216,7.1804 5.9177,7.1326 5.7580,7.0528 5.5988,6.7329" fill="#bcd9ff" stroke="#333" stroke-width="0.0190" stroke-linejoin="round"/>
  <polygon points="5.5988,6.7329 5.7580,7.0528 5.9177,7.1326 5.8216,7.1804 5.7255,7.2283 5.8851,7.3081 6.0444,7.6280 6.3957,7.6943 6.5557,7.6150 6.5359,7.7206 6.5161,7.8261 6.6761,7.7469 7.0274,7.8128 7.2918,7.5722 7.3250,7.3968 7.3973,7.4762 7.4696,7.5557 7.5028,7.3803 7.7672,7.1397 7.7347,6.7837 7.6148,6.6515 7.7218,6.6417 7.8287,6.6319 7.7088,6.4996 7.6763,6.1437 7.3431,6.0141 7.1713,6.0626 7.2102,5.9625 7.2491,5.8623 7.0773,5.9108 6.7441,5.7813 6.4527,5.4924 6.3659,5.5799 6.2496,5.4646 6.3365,5.3771 6.4233,5.2895 6.3070,5.1742 6.2202,5.2618 5.9288,4.9729 6.0263,5.3169 6.1686,5.4248 6.0652,5.4541 5.9619,5.4834 6.1042,5.5913 6.2017,5.9351 5.9862,6.2202 5.9859,6.3988 5.9003,6.3340 5.8146,6.2693 5.8143,6.4478 5.5988,6.7329" fill="#ffd9a8" stroke="#333" stroke-width="0.0190" stroke-linejoin="round"/>
  <polygon points="7.0738,4.0215 6.9145,3.7015 6.7549,3.6217 6.8510,3.5739 6.9472,3.5260 6.7875,3.4462 6.6282,3.1262 6.2769,3.0604 6.1170,3.1397 6.1368,3.0341 6.1566,2.9285 5.9966,3.0078 5.6453,2.9419 5.3810,3.1825 5.3478,3.3579 5.2755,3.2785 5.2033,3.1990 5.1701,3.3744 4.9057,3.6150 4.9382,3.9709 5.0582,4.1031 4.9512,4.1129 4.8443,4.1227 4.9642,4.2549 4.9967,4.6108 5.3298,4.7403 5.5016,4.6919 5.4627,4.7920 5.4238,4.8921 5.5957,4.8436 5.9288,4.9731 6.2202,5.2618 6.3070,5.1742 6.4233,5.2895 6.3365,5.3771 6.2496,5.4646 6.3659,5.5799 6.4527,5.4924 6.7441,5.7813 6.6464,5.4374 6.5042,5.3295 6.6075,5.3002 6.7108,5.2709 6.5686,5.1630 6.4710,4.8192 6.6865,4.5341 6.6867,4.3556 6.7724,4.4203 6.8581,4.4851 6.8584,4.3066 7.0738,4.0215" fill="#ffd9a8" stroke="#333" stroke-width="0.0190" stroke-linejoin="round"/>
  <polygon points="2.8286,4.2043 2.9879,4.5242 3.1476,4.6041 3.0514,4.6519 2.9553,4.6998 3.1150,4.7796 3.2742,5.0995 3.6255,5.1654 3.7854,5.0861 3.7656,5.1917 3.7458,5.2972 3.9058,5.2180 4.2571,5.2838 4.5214,5.0433 4.5546,4.8679 4.6269,4.9473 4.6992,5.0268 4.7324,4.8513 4.9967,4.6108 4.9642,4.2549 4.8443,4.1227 4.9512,4.1129 5.0582,4.1031 4.9382,3.9709 4.9057,3.6150 4.5726,3.4855 4.4008,3.5339 4.4397,3.4338 4.4786,3.3337 4.3068,3.3822 3.9736,3.2527 3.6823,2.9639 3.5955,3.0514 3.4792,2.9362 3.5660,2.8486 3.6528,2.7611 3.5366,2.6458 3.4498,2.7334 3.1584,2.4445 3.2560,2.7884 3.3982,2.8962 3.2949,2.9256 3.1916,2.9549 3.3338,3.0628 3.4314,3.4066 3.2160,3.6917 3.2157,3.8702 3.1300,3.8054 3.0443,3.7407 3.0440,3.9192 2.8286,4.2043" fill="#ffd9a8" stroke="#333" stroke-width="0.0190" stroke-linejoin="round"/>
  <polygon points="2.8286,4.2045 2.4712,4.2045 2.3286,4.3119 2.3286,4.2045 2.3286,4.0971 2.1860,4.2045 1.8286,4.2045 1.6131,4.4896 1.6128,4.6681 1.5272,4.6034 1.4415,4.5386 1.4412,4.7171 1.2257,5.0023 1.3232,5.3461 1.4655,5.4540 1.3622,5.4833 1.2589,5.5126 1.4011,5.6205 1.4986,5.9643 1.8318,6.0938 2.0036,6.0453 1.9647,6.1454 1.9258,6.2455 2.0976,6.1971 2.4307,6.3266 2.6951,6.0860 2.7283,5.9106 2.8005,5.9901 2.8728,6.0695 2.9060,5.8941 3.1703,5.6536 3.5587,5.5214 3.5190,5.4047 3.6740,5.3520 3.7137,5.4687 3.7534,5.5854 3.9084,5.5327 3.8687,5.4160 4.2571,5.2838 3.9058,5.2180 3.7458,5.2972 3.7656,5.1917 3.7854,5.0861 3.6255,5.1654 3.2742,5.0995 3.1149,4.7796 2.9553,4.6999 3.0514,4.6520 3.1475,4.6042 2.9879,4.5244 2.8286,4.2045" fill="#bcd9ff" stroke="#333" stroke-width="0.0190" stroke-linejoin="round"/>
  <polygon points="4.5988,6.7329 4.4395,6.4130 4.2799,6.3332 4.3760,6.2854 4.4721,6.2375 4.3125,6.1577 4.1532,5.8379 3.8019,5.7720 3.6420,5.8513 3.6618,5.7457 3.6816,5.6402 3.5216,5.7194 3.1703,5.6536 2.9060,5.8941 2.8728,6.0695 2.8005,5.9901 2.7283,5.9106 2.6951,6.0860 2.4307,6.3266 2.4632,6.6825 2.5832,6.8147 2.4762,6.8245 2.3693,6.8343 2.4892,6.9665 2.5217,7.3224 2.8548,7.4519 3.0266,7.4035 2.9877,7.5036 2.9488,7.6037 3.1206,7.5552 3.4538,7.6847 3.7451,7.9735 3.8319,7.8860 3.9482,8.0012 3.8614,8.0888 3.7746,8.1763 3.8908,8.2916 3.9776,8.2040 4.2690,8.4928 4.1713,8.1489 4.0290,8.0410 4.1323,8.0117 4.2357,7.9824 4.0934,7.8745 3.9959,7.5307 4.2113,7.2456 4.2116,7.0671 4.2973,7.1318 4.3830,7.1966 4.3833,7.0180 4.5988,6.7329" fill="#ffd9a8" stroke="#333" stroke-width="0.0190" stroke-linejoin="round"/>
  <polygon points="3.1238,9.4443 3.2830,9.7643 3.4427,9.8441 3.3466,9.8920 3.2504,9.9398 3.4101,10.0196 3.5694,10.3396 3.9206,10.4054 4.0806,10.3262 4.0608,10.4317 4.0410,10.5373 4.2010,10.4580 4.5522,10.5239 4.8166,10.2833 4.8498,10.1079 4.9221,10.1874 4.9943,10.2668 5.0275,10.0914 5.2919,9.8509 5.2593,9.4950 5.1394,9.3627 5.2464,9.3529 5.3533,9.3432 5.2334,9.2109 5.2009,8.8550 4.8678,8.7255 4.6959,8.7740 4.7349,8.6739 4.7738,8.5738 4.6019,8.6222 4.2688,8.4927 3.9776,8.2040 3.8908,8.2916 3.7746,8.1763 3.8614,8.0888 3.9482,8.0012 3.8319,7.8860 3.7451,7.9735 3.4538,7.6847 3.5511,8.0284 3.6934,8.1363 3.5901,8.1656 3.4868,8.1949 3.6290,8.3028 3.7265,8.6466 3.5111,8.9317 3.5108,9.1102 3.4252,9.0455 3.3395,8.9807 3.3392,9.1592 3.1238,9.4443" fill="#ffd9a8" stroke="#333" stroke-width="0.0190" stroke-linejoin="round"/>
  <polygon points="7.3690,9.2615 7.2097,8.9416 7.0500,8.8618 7.1462,8.8139 7.2423,8.7661 7.0826,8.6862 6.9234,8.3663 6.5721,8.3004 6.4122,8.3797 6.4320,8.2741 6.4517,8.1686 6.2918,8.2479 5.9405,8.1820 5.6762,8.4225 5.6430,8.5979 5.5707,8.5185 5.4984,8.4391 5.4652,8.6145 5.2009,8.8550 5.2334,9.2109 5.3533,9.3432 5.2464,9.3529 5.1394,9.3627 5.2593,9.4950 5.2919,9.8509 5.6250,9.9803 5.7968,9.9319 5.7579,10.0320 5.7190,10.1321 5.8908,10.0837 6.2239,10.2131 6.5153,10.5020 6.6021,10.4144 6.7183,10.5297 6.6315,10.6172 6.5448,10.7048 6.6610,10.8200 6.7478,10.7325 7.0392,11.0213 6.9416,10.6775 6.7994,10.5696 6.9027,10.5403 7.0060,10.5109 6.8638,10.4031 6.7662,10.0592 6.9816,9.7742 6.9819,9.5957 7.0676,9.6604 7.1533,9.7251 7.1535,9.5466 7.3690,9.2615" fill="#ffd9a8" stroke="#333" stroke-width="0.0190" stroke-linejoin="round"/>
  <polygon points="7.3690,9.2613 7.7264,9.2613 7.8690,9.1539 7.8690,9.2613 7.8690,9.3687 8.0116,9.2613 8.3690,9.2613 8.5844,8.9762 8.5848,8.7977 8.6704,8.8624 8.7561,8.9272 8.7564,8.7487 8.9719,8.4635 8.8743,8.1197 8.7321,8.0118 8.8354,7.9825 8.9387,7.9532 8.7965,7.8453 8.6989,7.5015 8.3658,7.3720 8.1940,7.4205 8.2329,7.3204 8.2718,7.2203 8.1000,7.2687 7.7669,7.1392 7.5025,7.3798 7.4693,7.5552 7.3971,7.4758 7.3248,7.3963 7.2916,7.5717 7.0272,7.8123 6.6389,7.9444 6.6786,8.0611 6.5236,8.1138 6.4839,7.9971 6.4442,7.8804 6.2892,7.9331 6.3289,8.0499 5.9405,8.1820 6.2918,8.2479 6.4517,8.1686 6.4320,8.2741 6.4122,8.3797 6.5721,8.3004 6.9234,8.3663 7.0826,8.6862 7.2423,8.7660 7.1462,8.8138 7.0501,8.8617 7.2097,8.9415 7.3690,9.2613" fill="#bcd9ff" stroke="#333" stroke-width="0.0190" stroke-linejoin="round"/>
  <polygon points="9.8447,6.5505 9.6855,6.2304 9.5258,6.1506 9.6219,6.1027 9.7181,6.0549 9.5584,5.9750 9.3991,5.6550 9.0478,5.5891 8.8878,5.6684 8.9076,5.5628 8.9274,5.4572 8.7674,5.5365 8.4161,5.4706 8.1517,5.7112 8.1185,5.8866 8.0462,5.8071 7.9739,5.7277 7.9407,5.9031 7.6763,6.1437 7.7088,6.4996 7.8287,6.6319 7.7218,6.6417 7.6148,6.6515 7.7347,6.7837 7.7672,7.1397 8.1004,7.2692 8.2722,7.2208 8.2333,7.3209 8.1944,7.4210 8.3662,7.3726 8.6994,7.5021 8.9908,7.7910 9.0776,7.7035 9.1939,7.8187 9.1070,7.9063 9.0202,7.9939 9.1365,8.1091 9.2233,8.0216 9.5147,8.3105 9.4172,7.9666 9.2749,7.8587 9.3782,7.8294 9.4816,7.8001 9.3393,7.6922 9.2418,7.3483 9.4573,7.0631 9.4576,6.8846 9.5432,6.9494 9.6289,7.0141 9.6292,6.8356 9.8447,6.5505" fill="#ffd9a8" stroke="#333" stroke-width="0.0190" stroke-linejoin="round"/>
  <polygon points="8.0745,4.0212 7.7170,4.0212 7.5744,4.1286 7.5744,4.0212 7.5744,3.9138 7.4317,4.0212 7.0743,4.0212 6.8587,4.3063 6.8584,4.4849 6.7727,4.4201 6.6871,4.3553 6.6867,4.5339 6.4712,4.8190 6.5686,5.1630 6.7108,5.2709 6.6075,5.3002 6.5042,5.3295 6.6464,5.4374 6.7440,5.7812 7.0773,5.9108 7.2491,5.8623 7.2102,5.9625 7.1713,6.0626 7.3431,6.0141 7.6763,6.1437 7.9407,5.9031 7.9739,5.7277 8.0462,5.8071 8.1185,5.8866 8.1517,5.7112 8.4161,5.4706 8.8046,5.3385 8.7649,5.2217 8.9199,5.1690 8.9596,5.2858 8.9993,5.4025 9.1543,5.3498 9.1146,5.2330 9.5031,5.1009 9.1517,5.0350 8.9917,5.1143 9.0115,5.0087 9.0314,4.9031 8.8714,4.9824 8.5200,4.9165 8.3608,4.5965 8.2011,4.5167 8.2973,4.4689 8.3934,4.4210 8.2337,4.3412 8.0745,4.0212" fill="#bcd9ff" stroke="#333" stroke-width="0.0190" stroke-linejoin="round"/>
  <polygon points="7.0738,4.0215 7.4312,4.0215 7.5739,3.9141 7.5739,4.0215 7.5739,4.1289 7.7165,4.0215 8.0740,4.0216 8.2895,3.7364 8.2898,3.5579 8.3755,3.6226 8.4612,3.6874 8.4615,3.5089 8.6771,3.2237 8.5795,2.8798 8.4373,2.7719 8.5406,2.7426 8.6440,2.7133 8.5017,2.6054 8.4042,2.2615 8.0710,2.1320 7.8991,2.1804 7.9381,2.0803 7.9770,1.9802 7.8051,2.0286 7.4720,1.8991 7.2076,2.1396 7.1743,2.3150 7.1020,2.2356 7.0298,2.1561 6.9965,2.3316 6.7321,2.5721 6.3437,2.7043 6.3834,2.8210 6.2284,2.8737 6.1887,2.7570 6.1490,2.6402 5.9940,2.6930 6.0337,2.8097 5.6452,2.9418 5.9965,3.0077 6.1565,2.9285 6.1367,3.0340 6.1169,3.1396 6.2769,3.0603 6.6282,3.1262 6.7875,3.4462 6.9472,3.5260 6.8510,3.5739 6.7549,3.6217 6.9145,3.7015 7.0738,4.0215" fill="#bcd9ff" stroke="#333" stroke-width="0.0190" stroke-linejoin="round"/>
  <polygon points="5.3036,1.4929 4.9462,1.4929 4.8036,1.6003 4.8036,1.4929 4.8036,1.3855 4.6610,1.4929 4.3036,1.4929 4.0881,1.7780 4.0878,1.9565 4.0022,1.8918 3.9165,1.8270 3.9162,2.0055 3.7007,2.2907 3.7982,2.6345 3.9405,2.7424 3.8372,2.7717 3.7339,2.8010 3.8761,2.9089 3.9736,3.2527 4.3068,3.3822 4.4786,3.3337 4.4397,3.4338 4.4008,3.5339 4.5726,3.4855 4.9057,3.6150 5.1701,3.3744 5.2033,3.1990 5.2755,3.2785 5.3478,3.3579 5.3810,3.1825 5.6453,2.9419 6.0337,2.8098 5.9940,2.6931 6.1490,2.6404 6.1887,2.7571 6.2284,2.8738 6.3834,2.8211 6.3437,2.7044 6.7321,2.5722 6.3808,2.5063 6.2208,2.5856 6.2406,2.4801 6.2604,2.3745 6.1005,2.4538 5.7492,2.3879 5.5900,2.0680 5.4303,1.9882 5.5264,1.9404 5.6225,1.8925 5.4629,1.8128 5.3036,1.4929" fill="#bcd9ff" stroke="#333" stroke-width="0.0190" stroke-linejoin="round"/>
  <polygon points="4.3034,1.4929 4.1442,1.1730 3.9845,1.0932 4.0807,1.0453 4.1768,0.9975 4.0171,0.9177 3.8579,0.5977 3.5066,0.5318 3.3466,0.6111 3.3664,0.5056 3.3862,0.4000 3.2263,0.4793 2.8750,0.4134 2.6107,0.6539 2.5775,0.8293 2.5052,0.7499 2.4329,0.6705 2.3997,0.8459 2.1354,1.0864 2.1679,1.4423 2.2878,1.5746 2.1809,1.5843 2.0739,1.5941 2.1938,1.7264 2.2264,2.0823 2.5595,2.2117 2.7313,2.1633 2.6924,2.2634 2.6535,2.3635 2.8253,2.3151 3.1584,2.4445 3.4498,2.7334 3.5366,2.6458 3.6528,2.7611 3.5660,2.8486 3.4792,2.9362 3.5955,3.0514 3.6823,2.9639 3.9736,3.2527 3.8761,2.9089 3.7339,2.8010 3.8372,2.7717 3.9405,2.7424 3.7982,2.6345 3.7007,2.2907 3.9162,2.0055 3.9165,1.8270 4.0022,1.8918 4.0878,1.9565 4.0881,1.7780 4.3036,1.4929" fill="#ffd9a8" stroke="#333" stroke-width="0.0190" stroke-linejoin="round"/>
  <polygon points="1.8284,4.2044 2.1858,4.2044 2.3284,4.0970 2.3284,4.2044 2.3284,4.3118 2.4711,4.2044 2.8284,4.2044 3.0440,3.9192 3.0443,3.7407 3.1300,3.8054 3.2157,3.8702 3.2160,3.6917 3.4314,3.4066 3.3338,3.0628 3.1916,2.9549 3.2949,2.9256 3.3982,2.8962 3.2560,2.7884 3.1584,2.4445 2.8253,2.3151 2.6535,2.3635 2.6924,2.2634 2.7313,2.1633 2.5595,2.2117 2.2264,2.0823 1.9620,2.3228 1.9288,2.4982 1.8565,2.4188 1.7843,2.3393 1.7511,2.5148 1.4867,2.7553 1.0983,2.8874 1.1380,3.0041 0.9831,3.0569 0.9434,2.9402 0.9037,2.8234 0.7487,2.8762 0.7884,2.9929 0.4000,3.1250 0.7513,3.1909 0.9112,3.1116 0.8914,3.2172 0.8716,3.3227 1.0316,3.2435 1.3829,3.3093 1.5421,3.6292 1.7018,3.7090 1.6057,3.7568 1.5095,3.8047 1.6692,3.8845 1.8284,4.2044" fill="#bcd9ff" stroke="#333" stroke-width="0.0190" stroke-linejoin="round"/>
</svg>
