<?xml version="1.0" encoding="UTF-8"?>
<svg xmlns="http://www.w3.org/2000/svg" viewBox="0 0 3.5086 3.3144" width="1000" height="945">
  <rect x="0" y="0" width="3.5086" height="3.3144" fill="#fafafa"/>
  <polygon points="0.4000,2.6074 0.8278,2.6074 0.8278,2.5000 1.0138,2.6074 1.4000,2.6074 1.8072,2.7387 1.7742,2.8409 1.9842,2.7958 2.3517,2.9144 2.6690,2.6275 2.7411,2.7071 2.8070,2.5027 3.0934,2.2437 3.0036,1.8254 3.1086,1.8029 2.9646,1.6436 2.8835,1.2660 2.6696,0.8955 2.5766,0.9492 2.5766,0.7344 2.3835,0.4000 2.0970,0.6590 2.0311,0.8634 1.9591,0.7837 1.6417,1.0707 1.4487,1.4051 1.2626,1.5125 1.3557,1.5662 1.1417,1.9367 0.8553,2.1957 0.7894,2.4001 0.7173,2.3204 0.4000,2.6074" fill="#bcd9ff" stroke="#333" stroke-width="0.0058" stroke-linejoin="round"/>
</svg>
