<?xml version="1.0" encoding="UTF-8"?>
<svg xmlns="http://www.w3.org/2000/svg" viewBox="0 0 3.0122 3.6006" width="1000" height="1195">
  <rect x="0" y="0" width="3.0122" height="3.6006" fill="#fafafa"/>
  <polygon points="0.4000,2.9448 0.7574,2.9448 0.9000,2.8374 0.9000,2.9448 0.9000,3.0522 1.0426,2.9448 1.4000,2.9448 1.7455,3.0362 1.8559,3.1765 1.8834,3.0727 1.9109,2.9689 2.0212,3.1092 2.3668,3.2006 2.4545,2.8541 2.5936,2.7423 2.4895,2.7159 2.3854,2.6895 2.5245,2.5777 2.6122,2.2312 2.2548,2.2312 2.1122,2.3386 2.1122,2.2312 2.1122,2.1238 1.9696,2.2312 1.6122,2.2312 1.7000,1.8847 1.8391,1.7729 1.7350,1.7465 1.6309,1.7201 1.7700,1.6083 1.8577,1.2618 1.6764,0.9538 1.6966,0.7764 1.6041,0.8309 1.5115,0.8854 1.5317,0.7080 1.3505,0.4000 1.0964,0.6513 1.0705,0.8280 0.9950,0.7516 0.9195,0.6753 0.8936,0.8519 0.6395,1.1033 0.4000,2.9448" fill="#bcd9ff" stroke="#333" stroke-width="0.0060" stroke-linejoin="round"/>
</svg>
